<svg xmlns="http://www.w3.org/2000/svg" xmlns:xlink="http://www.w3.org/1999/xlink" width="50" zoomAndPan="magnify" viewBox="0 0 37.5 37.499999" height="50" preserveAspectRatio="xMidYMid meet" version="1.0"><defs><clipPath id="adf0dc0938"><path d="M 1.257812 10.964844 L 3.480469 10.964844 L 3.480469 11.703125 L 1.257812 11.703125 Z M 1.257812 10.964844 " clip-rule="nonzero"/></clipPath><clipPath id="95fbb4ef26"><path d="M 1.257812 11 L 2 11 L 2 11.703125 L 1.257812 11.703125 Z M 1.257812 11 " clip-rule="nonzero"/></clipPath><clipPath id="c6b72aac97"><path d="M 1.257812 11 L 3 11 L 3 11.703125 L 1.257812 11.703125 Z M 1.257812 11 " clip-rule="nonzero"/></clipPath><clipPath id="ec8afd6f93"><path d="M 2 11 L 3 11 L 3 11.703125 L 2 11.703125 Z M 2 11 " clip-rule="nonzero"/></clipPath><clipPath id="7199ab4f77"><path d="M 2 11 L 3.480469 11 L 3.480469 11.703125 L 2 11.703125 Z M 2 11 " clip-rule="nonzero"/></clipPath><clipPath id="206188445a"><path d="M 1.257812 11 L 2 11 L 2 11.703125 L 1.257812 11.703125 Z M 1.257812 11 " clip-rule="nonzero"/></clipPath><clipPath id="fa7e83b464"><path d="M 2 11 L 3 11 L 3 11.703125 L 2 11.703125 Z M 2 11 " clip-rule="nonzero"/></clipPath><clipPath id="acfff33dce"><path d="M 2 11 L 3.480469 11 L 3.480469 11.703125 L 2 11.703125 Z M 2 11 " clip-rule="nonzero"/></clipPath><clipPath id="35c4a61980"><path d="M 3 11 L 3.480469 11 L 3.480469 11.703125 L 3 11.703125 Z M 3 11 " clip-rule="nonzero"/></clipPath><clipPath id="7c43160eab"><path d="M 2 11 L 3 11 L 3 11.703125 L 2 11.703125 Z M 2 11 " clip-rule="nonzero"/></clipPath><clipPath id="f45ccaf775"><path d="M 1.257812 11 L 2 11 L 2 11.703125 L 1.257812 11.703125 Z M 1.257812 11 " clip-rule="nonzero"/></clipPath><clipPath id="47e05b18a0"><path d="M 1.257812 11 L 3.480469 11 L 3.480469 11.703125 L 1.257812 11.703125 Z M 1.257812 11 " clip-rule="nonzero"/></clipPath><clipPath id="5645f7b669"><path d="M 1.257812 11 L 2 11 L 2 11.703125 L 1.257812 11.703125 Z M 1.257812 11 " clip-rule="nonzero"/></clipPath><clipPath id="4dc73d2c61"><path d="M 1.257812 11 L 3.480469 11 L 3.480469 11.703125 L 1.257812 11.703125 Z M 1.257812 11 " clip-rule="nonzero"/></clipPath><clipPath id="afb034cb9a"><path d="M 2 11 L 3 11 L 3 11.703125 L 2 11.703125 Z M 2 11 " clip-rule="nonzero"/></clipPath><clipPath id="5a6a8b6b63"><path d="M 1.257812 11 L 2 11 L 2 11.703125 L 1.257812 11.703125 Z M 1.257812 11 " clip-rule="nonzero"/></clipPath><clipPath id="4c1c55300e"><path d="M 1.257812 10.964844 L 3.480469 10.964844 L 3.480469 11.703125 L 1.257812 11.703125 Z M 1.257812 10.964844 " clip-rule="nonzero"/></clipPath><clipPath id="e0b158cd43"><path d="M 1.257812 3.699219 L 36.046875 3.699219 L 36.046875 32 L 1.257812 32 Z M 1.257812 3.699219 " clip-rule="nonzero"/></clipPath></defs><g clip-path="url(#adf0dc0938)"><path fill="#fdd183" d="M 3.472656 11.125 L 3.472656 11.542969 L 3.40625 11.542969 L 3.40625 11.59375 L 3.34375 11.59375 L 3.34375 11.648438 L 3.277344 11.648438 L 3.277344 11.699219 L 1.464844 11.699219 L 1.464844 11.648438 L 1.402344 11.648438 L 1.402344 11.59375 L 1.335938 11.59375 L 1.335938 11.542969 L 1.269531 11.542969 L 1.269531 11.125 L 1.335938 11.125 L 1.335938 11.070312 L 1.402344 11.070312 L 1.402344 11.019531 L 1.464844 11.019531 L 1.464844 10.96875 L 3.277344 10.96875 L 3.277344 11.019531 L 3.34375 11.019531 L 3.34375 11.070312 L 3.40625 11.070312 L 3.40625 11.125 Z M 3.472656 11.125 " fill-opacity="1" fill-rule="nonzero"/></g><g clip-path="url(#95fbb4ef26)"><path fill="#ffffff" d="M 1.527344 11.230469 L 1.527344 11.28125 L 1.589844 11.28125 L 1.589844 11.175781 L 1.527344 11.175781 Z M 1.527344 11.230469 " fill-opacity="1" fill-rule="nonzero"/><path fill="#ffffff" d="M 1.65625 11.125 L 1.589844 11.125 L 1.589844 11.175781 L 1.785156 11.175781 L 1.785156 11.125 Z M 1.65625 11.125 " fill-opacity="1" fill-rule="nonzero"/><path fill="#ffffff" d="M 1.65625 11.335938 L 1.722656 11.335938 L 1.722656 11.28125 L 1.589844 11.28125 L 1.589844 11.335938 Z M 1.65625 11.335938 " fill-opacity="1" fill-rule="nonzero"/><path fill="#ffffff" d="M 1.589844 11.441406 L 1.527344 11.441406 L 1.527344 11.492188 L 1.722656 11.492188 L 1.722656 11.441406 Z M 1.589844 11.441406 " fill-opacity="1" fill-rule="nonzero"/><path fill="#ffffff" d="M 1.722656 11.441406 L 1.785156 11.441406 L 1.785156 11.335938 L 1.722656 11.335938 Z M 1.722656 11.441406 " fill-opacity="1" fill-rule="nonzero"/></g><g clip-path="url(#c6b72aac97)"><path fill="#ffffff" d="M 2.109375 11.125 L 1.980469 11.125 L 1.980469 11.492188 L 2.238281 11.492188 L 2.238281 11.28125 L 2.109375 11.28125 L 2.109375 11.335938 L 2.175781 11.335938 L 2.175781 11.441406 L 2.046875 11.441406 L 2.046875 11.175781 L 2.238281 11.175781 L 2.238281 11.125 Z M 2.109375 11.125 " fill-opacity="1" fill-rule="nonzero"/></g><g clip-path="url(#ec8afd6f93)"><path fill="#ffffff" d="M 2.757812 11.175781 L 2.757812 11.492188 L 2.824219 11.492188 L 2.824219 11.125 L 2.757812 11.125 Z M 2.757812 11.175781 " fill-opacity="1" fill-rule="nonzero"/></g><g clip-path="url(#7199ab4f77)"><path fill="#ffffff" d="M 3.082031 11.125 L 3.082031 11.230469 L 3.019531 11.230469 L 3.019531 11.175781 L 2.953125 11.175781 L 2.953125 11.125 L 2.886719 11.125 L 2.886719 11.492188 L 2.953125 11.492188 L 2.953125 11.28125 L 3.019531 11.28125 L 3.019531 11.335938 L 3.082031 11.335938 L 3.082031 11.492188 L 3.148438 11.492188 L 3.148438 11.125 Z M 3.082031 11.125 " fill-opacity="1" fill-rule="nonzero"/></g><g clip-path="url(#206188445a)"><path fill="#ffffff" d="M 1.851562 11.175781 L 1.851562 11.492188 L 1.914062 11.492188 L 1.914062 11.125 L 1.851562 11.125 Z M 1.851562 11.175781 " fill-opacity="1" fill-rule="nonzero"/></g><g clip-path="url(#fa7e83b464)"><path fill="#ffffff" d="M 2.5 11.175781 L 2.5 11.230469 L 2.433594 11.230469 L 2.433594 11.175781 L 2.371094 11.175781 L 2.371094 11.125 L 2.304688 11.125 L 2.304688 11.492188 L 2.371094 11.492188 L 2.371094 11.28125 L 2.433594 11.28125 L 2.433594 11.335938 L 2.5 11.335938 L 2.5 11.492188 L 2.5625 11.492188 L 2.5625 11.125 L 2.5 11.125 Z M 2.5 11.175781 " fill-opacity="1" fill-rule="nonzero"/><path fill="#f58864" d="M 2.5 11.175781 L 2.5 11.125 L 2.433594 11.125 L 2.433594 11.230469 L 2.5 11.230469 Z M 2.5 11.175781 " fill-opacity="1" fill-rule="nonzero"/><path fill="#f58864" d="M 2.433594 11.386719 L 2.433594 11.492188 L 2.5 11.492188 L 2.5 11.335938 L 2.433594 11.335938 L 2.433594 11.28125 L 2.367188 11.28125 L 2.367188 11.335938 L 2.433594 11.335938 Z M 2.433594 11.386719 " fill-opacity="1" fill-rule="nonzero"/><path fill="#f58864" d="M 2.304688 11.441406 L 2.304688 11.125 L 2.238281 11.125 L 2.238281 11.492188 L 2.304688 11.492188 Z M 2.304688 11.441406 " fill-opacity="1" fill-rule="nonzero"/></g><g clip-path="url(#acfff33dce)"><path fill="#f58864" d="M 3.015625 11.386719 L 3.015625 11.492188 L 3.082031 11.492188 L 3.082031 11.335938 L 3.019531 11.335938 L 3.019531 11.28125 L 2.953125 11.28125 L 2.953125 11.335938 L 3.015625 11.335938 Z M 3.015625 11.386719 " fill-opacity="1" fill-rule="nonzero"/></g><g clip-path="url(#35c4a61980)"><path fill="#f58864" d="M 3.082031 11.175781 L 3.082031 11.125 L 3.015625 11.125 L 3.015625 11.230469 L 3.082031 11.230469 Z M 3.082031 11.175781 " fill-opacity="1" fill-rule="nonzero"/></g><g clip-path="url(#7c43160eab)"><path fill="#f58864" d="M 2.175781 11.386719 L 2.175781 11.335938 L 2.109375 11.335938 L 2.109375 11.441406 L 2.175781 11.441406 Z M 2.175781 11.386719 " fill-opacity="1" fill-rule="nonzero"/><path fill="#f58864" d="M 2.890625 11.441406 L 2.890625 11.125 L 2.824219 11.125 L 2.824219 11.492188 L 2.890625 11.492188 Z M 2.890625 11.441406 " fill-opacity="1" fill-rule="nonzero"/><path fill="#f58864" d="M 2.757812 11.441406 L 2.757812 11.125 L 2.691406 11.125 L 2.691406 11.492188 L 2.757812 11.492188 Z M 2.757812 11.441406 " fill-opacity="1" fill-rule="nonzero"/></g><g clip-path="url(#f45ccaf775)"><path fill="#f58864" d="M 1.527344 11.441406 L 1.460938 11.441406 L 1.460938 11.492188 L 1.527344 11.492188 Z M 1.527344 11.441406 " fill-opacity="1" fill-rule="nonzero"/></g><g clip-path="url(#47e05b18a0)"><path fill="#f58864" d="M 3.339844 11.125 L 3.339844 11.546875 L 3.277344 11.546875 L 3.277344 11.597656 L 1.460938 11.597656 L 1.460938 11.652344 L 3.277344 11.652344 L 3.277344 11.597656 L 3.34375 11.597656 L 3.34375 11.546875 L 3.40625 11.546875 L 3.40625 11.125 Z M 3.339844 11.125 " fill-opacity="1" fill-rule="nonzero"/></g><g clip-path="url(#5645f7b669)"><path fill="#f58864" d="M 1.980469 11.441406 L 1.980469 11.125 L 1.914062 11.125 L 1.914062 11.492188 L 1.980469 11.492188 Z M 1.980469 11.441406 " fill-opacity="1" fill-rule="nonzero"/><path fill="#f58864" d="M 1.527344 11.335938 L 1.59375 11.335938 L 1.59375 11.28125 L 1.527344 11.28125 L 1.527344 11.175781 L 1.59375 11.175781 L 1.59375 11.125 L 1.527344 11.125 L 1.527344 11.175781 L 1.460938 11.175781 L 1.460938 11.28125 L 1.527344 11.28125 Z M 1.527344 11.335938 " fill-opacity="1" fill-rule="nonzero"/><path fill="#f58864" d="M 1.722656 11.386719 L 1.722656 11.335938 L 1.65625 11.335938 L 1.65625 11.441406 L 1.722656 11.441406 Z M 1.722656 11.386719 " fill-opacity="1" fill-rule="nonzero"/><path fill="#f58864" d="M 1.851562 11.441406 L 1.851562 11.125 L 1.785156 11.125 L 1.785156 11.492188 L 1.851562 11.492188 Z M 1.851562 11.441406 " fill-opacity="1" fill-rule="nonzero"/><path fill="#ffe8c2" d="M 1.398438 11.070312 L 1.460938 11.070312 L 1.460938 11.125 L 1.398438 11.125 Z M 1.398438 11.070312 " fill-opacity="1" fill-rule="nonzero"/></g><g clip-path="url(#4dc73d2c61)"><path fill="#ffe8c2" d="M 3.210938 11.019531 L 1.460938 11.019531 L 1.460938 11.070312 L 3.277344 11.070312 L 3.277344 11.019531 Z M 3.210938 11.019531 " fill-opacity="1" fill-rule="nonzero"/></g><g clip-path="url(#afb034cb9a)"><path fill="#fdd183" d="M 2.109375 11.175781 L 2.046875 11.175781 L 2.046875 11.441406 L 2.109375 11.441406 L 2.109375 11.28125 L 2.238281 11.28125 L 2.238281 11.175781 Z M 2.109375 11.175781 " fill-opacity="1" fill-rule="nonzero"/></g><g clip-path="url(#5a6a8b6b63)"><path fill="#fdd183" d="M 1.65625 11.175781 L 1.589844 11.175781 L 1.589844 11.28125 L 1.722656 11.28125 L 1.722656 11.335938 L 1.785156 11.335938 L 1.785156 11.175781 Z M 1.65625 11.175781 " fill-opacity="1" fill-rule="nonzero"/></g><g clip-path="url(#4c1c55300e)"><path fill="#3d3b52" d="M 3.40625 11.121094 L 3.40625 11.070312 L 3.34375 11.070312 L 3.34375 11.015625 L 3.277344 11.015625 L 3.277344 10.964844 L 1.460938 10.964844 L 1.460938 11.015625 L 1.394531 11.015625 L 1.394531 11.070312 L 1.332031 11.070312 L 1.332031 11.121094 L 1.265625 11.121094 L 1.265625 11.546875 L 1.332031 11.546875 L 1.332031 11.597656 L 1.394531 11.597656 L 1.394531 11.652344 L 1.460938 11.652344 L 1.460938 11.703125 L 3.277344 11.703125 L 3.277344 11.652344 L 3.34375 11.652344 L 3.34375 11.597656 L 3.40625 11.597656 L 3.40625 11.546875 L 3.472656 11.546875 L 3.472656 11.121094 Z M 3.40625 11.175781 L 3.40625 11.546875 L 3.339844 11.546875 L 3.339844 11.597656 L 3.277344 11.597656 L 3.277344 11.652344 L 1.460938 11.652344 L 1.460938 11.597656 L 1.398438 11.597656 L 1.398438 11.546875 L 1.332031 11.546875 L 1.332031 11.125 L 1.398438 11.125 L 1.398438 11.070312 L 1.460938 11.070312 L 1.460938 11.019531 L 3.277344 11.019531 L 3.277344 11.070312 L 3.339844 11.070312 L 3.339844 11.125 L 3.40625 11.125 Z M 3.40625 11.175781 " fill-opacity="1" fill-rule="nonzero"/></g><path fill="#edf6ff" d="M 9.375 22.460938 L 16.332031 22.460938 C 16.027344 22.460938 15.730469 22.519531 15.445312 22.636719 C 15.160156 22.753906 14.910156 22.921875 14.691406 23.136719 C 14.476562 23.355469 14.308594 23.601562 14.191406 23.886719 C 14.074219 24.167969 14.015625 24.464844 14.015625 24.769531 C 14.015625 25.148438 13.976562 25.523438 13.902344 25.894531 C 13.828125 26.265625 13.71875 26.628906 13.574219 26.976562 C 13.425781 27.328125 13.25 27.660156 13.035156 27.976562 C 12.824219 28.289062 12.585938 28.582031 12.316406 28.851562 C 12.046875 29.117188 11.753906 29.355469 11.4375 29.566406 C 11.121094 29.777344 10.785156 29.957031 10.433594 30.101562 C 10.082031 30.246094 9.722656 30.355469 9.347656 30.429688 C 8.972656 30.503906 8.597656 30.539062 8.214844 30.539062 C 7.835938 30.539062 7.457031 30.503906 7.085938 30.429688 C 6.710938 30.355469 6.347656 30.246094 5.996094 30.101562 C 5.644531 29.957031 5.3125 29.777344 4.996094 29.566406 C 4.679688 29.355469 4.386719 29.117188 4.117188 28.851562 C 3.847656 28.582031 3.605469 28.289062 3.394531 27.976562 C 3.183594 27.660156 3.003906 27.328125 2.859375 26.976562 C 2.714844 26.628906 2.605469 26.265625 2.53125 25.894531 C 2.457031 25.523438 2.417969 25.148438 2.417969 24.769531 L 2.417969 15.535156 C 2.417969 15.992188 2.464844 16.441406 2.550781 16.886719 C 2.640625 17.332031 2.773438 17.765625 2.949219 18.1875 C 3.125 18.605469 3.335938 19.003906 3.589844 19.382812 C 3.84375 19.761719 4.132812 20.113281 4.457031 20.433594 C 4.78125 20.753906 5.132812 21.042969 5.511719 21.292969 C 5.890625 21.546875 6.292969 21.761719 6.714844 21.933594 C 7.136719 22.109375 7.570312 22.238281 8.019531 22.328125 C 8.464844 22.417969 8.917969 22.460938 9.375 22.460938 Z M 9.375 22.460938 " fill-opacity="1" fill-rule="nonzero"/><path fill="#edf6ff" d="M 34.886719 12.074219 L 34.886719 15.535156 C 34.886719 15.992188 34.839844 16.441406 34.753906 16.886719 C 34.664062 17.332031 34.53125 17.765625 34.355469 18.1875 C 34.179688 18.605469 33.96875 19.003906 33.714844 19.382812 C 33.460938 19.761719 33.171875 20.113281 32.847656 20.433594 C 32.523438 20.753906 32.171875 21.042969 31.792969 21.292969 C 31.414062 21.546875 31.011719 21.761719 30.589844 21.933594 C 30.167969 22.109375 29.734375 22.238281 29.285156 22.328125 C 28.835938 22.417969 28.386719 22.460938 27.929688 22.460938 L 9.375 22.460938 C 8.917969 22.460938 8.464844 22.417969 8.019531 22.328125 C 7.570312 22.238281 7.136719 22.109375 6.714844 21.933594 C 6.292969 21.761719 5.890625 21.546875 5.511719 21.292969 C 5.132812 21.042969 4.78125 20.753906 4.457031 20.433594 C 4.132812 20.113281 3.84375 19.761719 3.589844 19.382812 C 3.335938 19.003906 3.125 18.605469 2.949219 18.1875 C 2.773438 17.765625 2.640625 17.332031 2.550781 16.886719 C 2.464844 16.441406 2.417969 15.992188 2.417969 15.535156 L 2.417969 12.074219 C 2.417969 11.621094 2.464844 11.167969 2.550781 10.722656 C 2.640625 10.277344 2.773438 9.84375 2.949219 9.425781 C 3.125 9.003906 3.335938 8.605469 3.589844 8.226562 C 3.84375 7.847656 4.132812 7.5 4.457031 7.175781 C 4.78125 6.855469 5.132812 6.570312 5.511719 6.316406 C 5.890625 6.0625 6.292969 5.851562 6.714844 5.675781 C 7.136719 5.503906 7.570312 5.371094 8.019531 5.28125 C 8.464844 5.195312 8.917969 5.148438 9.375 5.148438 L 27.929688 5.148438 C 28.386719 5.148438 28.835938 5.195312 29.285156 5.28125 C 29.734375 5.371094 30.167969 5.503906 30.589844 5.675781 C 31.011719 5.851562 31.414062 6.0625 31.792969 6.316406 C 32.171875 6.570312 32.523438 6.855469 32.847656 7.175781 C 33.171875 7.5 33.460938 7.847656 33.714844 8.226562 C 33.96875 8.605469 34.179688 9.003906 34.355469 9.425781 C 34.53125 9.84375 34.664062 10.277344 34.753906 10.722656 C 34.839844 11.167969 34.886719 11.621094 34.886719 12.074219 Z M 34.886719 12.074219 " fill-opacity="1" fill-rule="nonzero"/><path fill="#5397ea" d="M 4.738281 25.921875 L 4.738281 26.800781 C 4.742188 27.902344 5.023438 28.929688 5.585938 29.882812 C 5.804688 29.992188 6.03125 30.089844 6.261719 30.171875 C 6.492188 30.257812 6.730469 30.324219 6.96875 30.375 C 7.210938 30.429688 7.453125 30.464844 7.699219 30.488281 C 7.945312 30.511719 8.191406 30.515625 8.4375 30.507812 C 8.683594 30.496094 8.925781 30.472656 9.171875 30.433594 C 9.414062 30.390625 9.652344 30.335938 9.890625 30.265625 C 10.125 30.195312 10.355469 30.109375 10.582031 30.011719 C 10.804688 29.910156 11.023438 29.796875 11.234375 29.667969 C 11.445312 29.539062 11.644531 29.402344 11.835938 29.246094 C 12.03125 29.09375 12.210938 28.929688 12.382812 28.753906 C 12.554688 28.578125 12.714844 28.390625 12.859375 28.195312 C 13.007812 27.996094 13.144531 27.792969 13.265625 27.578125 C 13.386719 27.367188 13.492188 27.144531 13.585938 26.917969 C 13.679688 26.691406 13.757812 26.460938 13.820312 26.222656 C 13.882812 25.984375 13.929688 25.746094 13.964844 25.503906 C 13.996094 25.257812 14.011719 25.015625 14.015625 24.769531 L 5.898438 24.769531 C 5.742188 24.769531 5.59375 24.796875 5.453125 24.855469 C 5.3125 24.914062 5.1875 25 5.078125 25.109375 C 4.96875 25.214844 4.886719 25.339844 4.824219 25.480469 C 4.765625 25.625 4.738281 25.769531 4.738281 25.921875 Z M 4.738281 25.921875 " fill-opacity="1" fill-rule="nonzero"/><path fill="#edf6ff" d="M 20.972656 22.460938 L 27.929688 22.460938 C 28.386719 22.460938 28.835938 22.417969 29.285156 22.328125 C 29.734375 22.238281 30.167969 22.109375 30.589844 21.933594 C 31.011719 21.761719 31.414062 21.546875 31.792969 21.292969 C 32.171875 21.042969 32.523438 20.753906 32.847656 20.433594 C 33.171875 20.113281 33.460938 19.761719 33.714844 19.382812 C 33.96875 19.003906 34.179688 18.605469 34.355469 18.1875 C 34.53125 17.765625 34.664062 17.332031 34.753906 16.886719 C 34.839844 16.441406 34.886719 15.992188 34.886719 15.535156 L 34.886719 24.769531 C 34.886719 25.148438 34.847656 25.523438 34.773438 25.894531 C 34.699219 26.265625 34.589844 26.628906 34.445312 26.976562 C 34.296875 27.328125 34.121094 27.660156 33.910156 27.976562 C 33.695312 28.289062 33.457031 28.582031 33.1875 28.851562 C 32.917969 29.117188 32.625 29.355469 32.308594 29.566406 C 31.992188 29.777344 31.660156 29.957031 31.308594 30.101562 C 30.953125 30.246094 30.59375 30.355469 30.21875 30.429688 C 29.847656 30.503906 29.46875 30.539062 29.089844 30.539062 C 28.707031 30.539062 28.332031 30.503906 27.957031 30.429688 C 27.582031 30.355469 27.222656 30.246094 26.871094 30.101562 C 26.519531 29.957031 26.183594 29.777344 25.867188 29.566406 C 25.550781 29.355469 25.257812 29.117188 24.988281 28.851562 C 24.71875 28.582031 24.480469 28.289062 24.265625 27.976562 C 24.054688 27.660156 23.878906 27.328125 23.730469 26.976562 C 23.585938 26.628906 23.476562 26.265625 23.402344 25.894531 C 23.328125 25.523438 23.289062 25.148438 23.289062 24.769531 C 23.289062 24.464844 23.230469 24.167969 23.113281 23.886719 C 22.996094 23.601562 22.828125 23.355469 22.609375 23.136719 C 22.394531 22.921875 22.144531 22.753906 21.859375 22.636719 C 21.574219 22.519531 21.277344 22.460938 20.972656 22.460938 Z M 20.972656 22.460938 " fill-opacity="1" fill-rule="nonzero"/><path fill="#5397ea" d="M 34.886719 24.769531 L 34.886719 22.992188 C 34.25 23.5625 33.53125 24 32.730469 24.308594 C 31.933594 24.613281 31.105469 24.769531 30.246094 24.769531 L 26.769531 24.769531 C 26.617188 24.769531 26.46875 24.796875 26.324219 24.855469 C 26.183594 24.914062 26.058594 25 25.949219 25.109375 C 25.839844 25.214844 25.757812 25.339844 25.699219 25.480469 C 25.640625 25.625 25.609375 25.769531 25.609375 25.921875 L 25.609375 27.078125 C 25.621094 28.054688 25.859375 28.96875 26.328125 29.824219 C 27.1875 30.292969 28.109375 30.53125 29.089844 30.539062 C 29.46875 30.539062 29.847656 30.503906 30.21875 30.429688 C 30.59375 30.355469 30.953125 30.246094 31.308594 30.101562 C 31.660156 29.957031 31.992188 29.777344 32.308594 29.566406 C 32.625 29.355469 32.917969 29.117188 33.1875 28.851562 C 33.457031 28.582031 33.695312 28.289062 33.910156 27.976562 C 34.121094 27.660156 34.296875 27.328125 34.445312 26.976562 C 34.589844 26.628906 34.699219 26.265625 34.773438 25.894531 C 34.847656 25.523438 34.886719 25.148438 34.886719 24.769531 Z M 34.886719 24.769531 " fill-opacity="1" fill-rule="nonzero"/><path fill="#84b5ff" d="M 9.375 7.457031 C 9.070312 7.457031 8.769531 7.488281 8.472656 7.546875 C 8.171875 7.605469 7.882812 7.691406 7.601562 7.808594 C 7.320312 7.925781 7.050781 8.066406 6.800781 8.234375 C 6.546875 8.402344 6.3125 8.59375 6.097656 8.808594 C 5.882812 9.023438 5.6875 9.257812 5.519531 9.507812 C 5.351562 9.761719 5.207031 10.027344 5.089844 10.308594 C 4.972656 10.585938 4.886719 10.875 4.828125 11.171875 C 4.765625 11.46875 4.738281 11.769531 4.738281 12.074219 L 4.738281 17.84375 C 4.738281 19.140625 5.078125 20.339844 5.757812 21.445312 C 6.867188 22.121094 8.074219 22.460938 9.375 22.460938 L 27.929688 22.460938 C 28.386719 22.460938 28.835938 22.417969 29.285156 22.328125 C 29.734375 22.238281 30.167969 22.109375 30.589844 21.933594 C 31.011719 21.761719 31.414062 21.546875 31.792969 21.292969 C 32.171875 21.042969 32.523438 20.753906 32.847656 20.433594 C 33.171875 20.113281 33.460938 19.761719 33.714844 19.382812 C 33.96875 19.003906 34.179688 18.605469 34.355469 18.1875 C 34.53125 17.765625 34.664062 17.332031 34.753906 16.886719 C 34.839844 16.441406 34.886719 15.992188 34.886719 15.535156 L 34.886719 12.074219 C 34.882812 10.777344 34.542969 9.578125 33.867188 8.472656 C 32.753906 7.796875 31.550781 7.460938 30.246094 7.457031 Z M 9.375 7.457031 " fill-opacity="1" fill-rule="nonzero"/><path fill="#2c67cc" d="M 10.535156 17.84375 C 10.6875 17.84375 10.835938 17.816406 10.980469 17.757812 C 11.121094 17.699219 11.246094 17.613281 11.355469 17.507812 C 11.464844 17.398438 11.546875 17.273438 11.605469 17.132812 C 11.664062 16.992188 11.695312 16.84375 11.695312 16.691406 L 11.695312 14.960938 L 13.433594 14.960938 C 13.589844 14.960938 13.734375 14.929688 13.878906 14.871094 C 14.019531 14.8125 14.144531 14.730469 14.253906 14.621094 C 14.363281 14.511719 14.445312 14.386719 14.503906 14.246094 C 14.5625 14.105469 14.59375 13.957031 14.59375 13.804688 C 14.59375 13.652344 14.5625 13.503906 14.503906 13.363281 C 14.445312 13.222656 14.363281 13.097656 14.253906 12.988281 C 14.144531 12.882812 14.019531 12.796875 13.878906 12.738281 C 13.734375 12.679688 13.589844 12.652344 13.433594 12.652344 L 11.695312 12.652344 L 11.695312 10.917969 C 11.695312 10.765625 11.664062 10.621094 11.605469 10.476562 C 11.546875 10.335938 11.464844 10.210938 11.355469 10.105469 C 11.246094 9.996094 11.121094 9.914062 10.980469 9.855469 C 10.835938 9.796875 10.6875 9.765625 10.535156 9.765625 C 10.382812 9.765625 10.234375 9.796875 10.089844 9.855469 C 9.949219 9.914062 9.824219 9.996094 9.714844 10.105469 C 9.605469 10.210938 9.523438 10.335938 9.464844 10.476562 C 9.40625 10.621094 9.375 10.765625 9.375 10.917969 L 9.375 12.652344 L 7.636719 12.652344 C 7.484375 12.652344 7.335938 12.679688 7.191406 12.738281 C 7.050781 12.796875 6.925781 12.882812 6.816406 12.988281 C 6.707031 13.097656 6.625 13.222656 6.566406 13.363281 C 6.507812 13.503906 6.476562 13.652344 6.476562 13.804688 C 6.476562 13.957031 6.507812 14.105469 6.566406 14.246094 C 6.625 14.386719 6.707031 14.511719 6.816406 14.621094 C 6.925781 14.730469 7.050781 14.8125 7.191406 14.871094 C 7.335938 14.929688 7.484375 14.960938 7.636719 14.960938 L 9.375 14.960938 L 9.375 16.691406 C 9.375 16.84375 9.40625 16.992188 9.464844 17.132812 C 9.523438 17.273438 9.605469 17.398438 9.714844 17.507812 C 9.824219 17.613281 9.949219 17.699219 10.089844 17.757812 C 10.234375 17.816406 10.382812 17.84375 10.535156 17.84375 Z M 10.535156 17.84375 " fill-opacity="1" fill-rule="nonzero"/><path fill="#2c67cc" d="M 23.871094 12.652344 C 23.714844 12.652344 23.570312 12.679688 23.425781 12.738281 C 23.285156 12.796875 23.160156 12.882812 23.050781 12.988281 C 22.941406 13.097656 22.859375 13.222656 22.800781 13.363281 C 22.738281 13.503906 22.710938 13.652344 22.710938 13.804688 C 22.710938 13.957031 22.738281 14.105469 22.800781 14.246094 C 22.859375 14.386719 22.941406 14.511719 23.050781 14.621094 C 23.160156 14.730469 23.285156 14.8125 23.425781 14.871094 C 23.570312 14.929688 23.714844 14.960938 23.871094 14.960938 L 25.609375 14.960938 L 25.609375 16.691406 C 25.609375 16.84375 25.640625 16.992188 25.699219 17.132812 C 25.757812 17.273438 25.839844 17.398438 25.949219 17.507812 C 26.058594 17.613281 26.183594 17.699219 26.324219 17.757812 C 26.46875 17.816406 26.617188 17.84375 26.769531 17.84375 C 26.921875 17.84375 27.070312 17.816406 27.210938 17.757812 C 27.355469 17.699219 27.480469 17.613281 27.589844 17.507812 C 27.699219 17.398438 27.78125 17.273438 27.839844 17.132812 C 27.898438 16.992188 27.929688 16.84375 27.929688 16.691406 L 27.929688 14.960938 L 29.667969 14.960938 C 29.820312 14.960938 29.96875 14.929688 30.113281 14.871094 C 30.253906 14.8125 30.378906 14.730469 30.488281 14.621094 C 30.597656 14.511719 30.679688 14.386719 30.738281 14.246094 C 30.796875 14.105469 30.828125 13.957031 30.828125 13.804688 C 30.828125 13.652344 30.796875 13.503906 30.738281 13.363281 C 30.679688 13.222656 30.597656 13.097656 30.488281 12.988281 C 30.378906 12.882812 30.253906 12.796875 30.113281 12.738281 C 29.96875 12.679688 29.820312 12.652344 29.667969 12.652344 L 27.929688 12.652344 L 27.929688 10.917969 C 27.929688 10.765625 27.898438 10.621094 27.839844 10.476562 C 27.78125 10.335938 27.699219 10.210938 27.589844 10.105469 C 27.480469 9.996094 27.355469 9.914062 27.210938 9.855469 C 27.070312 9.796875 26.921875 9.765625 26.769531 9.765625 C 26.617188 9.765625 26.46875 9.796875 26.324219 9.855469 C 26.183594 9.914062 26.058594 9.996094 25.949219 10.105469 C 25.839844 10.210938 25.757812 10.335938 25.699219 10.476562 C 25.640625 10.621094 25.609375 10.765625 25.609375 10.917969 L 25.609375 12.652344 Z M 23.871094 12.652344 " fill-opacity="1" fill-rule="nonzero"/><g clip-path="url(#e0b158cd43)"><path fill="#2c67cc" d="M 27.929688 3.996094 C 27.773438 3.996094 27.625 4.023438 27.484375 4.082031 C 27.34375 4.140625 27.21875 4.226562 27.109375 4.332031 C 27 4.441406 26.917969 4.566406 26.855469 4.707031 C 26.796875 4.847656 26.769531 4.996094 26.769531 5.148438 C 26.769531 5.300781 26.796875 5.449219 26.855469 5.589844 C 26.917969 5.730469 27 5.855469 27.109375 5.964844 C 27.21875 6.074219 27.34375 6.15625 27.484375 6.214844 C 27.625 6.273438 27.773438 6.304688 27.929688 6.304688 C 28.308594 6.304688 28.6875 6.339844 29.058594 6.414062 C 29.433594 6.488281 29.796875 6.597656 30.148438 6.742188 C 30.5 6.886719 30.832031 7.066406 31.148438 7.277344 C 31.464844 7.488281 31.757812 7.726562 32.027344 7.992188 C 32.296875 8.261719 32.539062 8.554688 32.75 8.867188 C 32.960938 9.183594 33.140625 9.515625 33.285156 9.867188 C 33.429688 10.214844 33.539062 10.578125 33.613281 10.949219 C 33.6875 11.320312 33.726562 11.695312 33.726562 12.074219 L 33.726562 15.535156 C 33.726562 15.914062 33.6875 16.289062 33.613281 16.664062 C 33.539062 17.035156 33.429688 17.394531 33.285156 17.746094 C 33.140625 18.09375 32.960938 18.425781 32.75 18.742188 C 32.539062 19.058594 32.296875 19.347656 32.027344 19.617188 C 31.757812 19.886719 31.464844 20.125 31.148438 20.335938 C 30.832031 20.546875 30.5 20.722656 30.148438 20.867188 C 29.796875 21.011719 29.433594 21.121094 29.058594 21.195312 C 28.6875 21.269531 28.308594 21.308594 27.929688 21.308594 L 9.375 21.308594 C 8.996094 21.308594 8.617188 21.269531 8.246094 21.195312 C 7.871094 21.121094 7.507812 21.011719 7.15625 20.867188 C 6.804688 20.722656 6.472656 20.546875 6.15625 20.335938 C 5.839844 20.125 5.546875 19.886719 5.277344 19.617188 C 5.007812 19.347656 4.765625 19.058594 4.554688 18.742188 C 4.34375 18.425781 4.164062 18.09375 4.019531 17.746094 C 3.875 17.394531 3.765625 17.035156 3.691406 16.664062 C 3.617188 16.289062 3.578125 15.914062 3.578125 15.535156 L 3.578125 12.074219 C 3.578125 11.695312 3.617188 11.320312 3.691406 10.949219 C 3.765625 10.578125 3.875 10.214844 4.019531 9.867188 C 4.164062 9.515625 4.34375 9.183594 4.554688 8.867188 C 4.765625 8.554688 5.007812 8.261719 5.277344 7.992188 C 5.546875 7.726562 5.839844 7.488281 6.15625 7.277344 C 6.472656 7.066406 6.804688 6.886719 7.15625 6.742188 C 7.507812 6.597656 7.871094 6.488281 8.246094 6.414062 C 8.617188 6.339844 8.996094 6.304688 9.375 6.304688 L 23.289062 6.304688 C 23.445312 6.304688 23.59375 6.273438 23.734375 6.214844 C 23.875 6.15625 24 6.074219 24.109375 5.964844 C 24.21875 5.855469 24.304688 5.730469 24.363281 5.589844 C 24.421875 5.449219 24.449219 5.300781 24.449219 5.148438 C 24.449219 4.996094 24.421875 4.847656 24.363281 4.707031 C 24.304688 4.566406 24.21875 4.441406 24.109375 4.332031 C 24 4.226562 23.875 4.140625 23.734375 4.082031 C 23.59375 4.023438 23.445312 3.996094 23.289062 3.996094 L 9.375 3.996094 C 8.84375 3.996094 8.316406 4.046875 7.792969 4.148438 C 7.269531 4.253906 6.761719 4.40625 6.269531 4.609375 C 5.777344 4.8125 5.308594 5.0625 4.867188 5.355469 C 4.421875 5.652344 4.011719 5.984375 3.636719 6.359375 C 3.257812 6.738281 2.921875 7.144531 2.628906 7.585938 C 2.332031 8.027344 2.082031 8.492188 1.878906 8.980469 C 1.671875 9.472656 1.519531 9.976562 1.414062 10.496094 C 1.3125 11.019531 1.257812 11.542969 1.257812 12.074219 L 1.257812 24.769531 C 1.257812 24.921875 1.289062 25.070312 1.347656 25.210938 C 1.40625 25.351562 1.488281 25.476562 1.597656 25.585938 C 1.707031 25.695312 1.832031 25.777344 1.976562 25.835938 C 2.117188 25.894531 2.265625 25.921875 2.417969 25.921875 C 2.574219 25.921875 2.71875 25.894531 2.863281 25.835938 C 3.003906 25.777344 3.128906 25.695312 3.238281 25.585938 C 3.347656 25.476562 3.429688 25.351562 3.488281 25.210938 C 3.546875 25.070312 3.578125 24.921875 3.578125 24.769531 L 3.578125 21.179688 C 4.339844 21.957031 5.226562 22.558594 6.230469 22.980469 C 7.234375 23.402344 8.285156 23.613281 9.375 23.617188 L 13.0625 23.617188 C 12.929688 23.988281 12.859375 24.375 12.855469 24.769531 C 12.855469 25.21875 12.792969 25.660156 12.664062 26.09375 C 12.535156 26.523438 12.34375 26.925781 12.097656 27.304688 C 11.851562 27.679688 11.554688 28.015625 11.207031 28.304688 C 10.863281 28.59375 10.484375 28.832031 10.066406 29.011719 C 9.652344 29.191406 9.222656 29.304688 8.773438 29.359375 C 8.324219 29.414062 7.875 29.402344 7.429688 29.328125 C 6.984375 29.25 6.558594 29.113281 6.152344 28.914062 C 5.75 28.710938 5.382812 28.457031 5.050781 28.152344 C 4.8125 27.960938 4.542969 27.875 4.238281 27.894531 C 3.9375 27.917969 3.679688 28.039062 3.472656 28.261719 C 3.265625 28.484375 3.160156 28.746094 3.160156 29.050781 C 3.160156 29.351562 3.265625 29.613281 3.472656 29.835938 C 3.96875 30.296875 4.519531 30.675781 5.128906 30.976562 C 5.734375 31.273438 6.371094 31.480469 7.039062 31.59375 C 7.707031 31.707031 8.378906 31.726562 9.050781 31.644531 C 9.722656 31.5625 10.371094 31.386719 10.992188 31.121094 C 11.613281 30.851562 12.183594 30.5 12.699219 30.0625 C 13.21875 29.628906 13.664062 29.128906 14.035156 28.566406 C 14.40625 28 14.6875 27.398438 14.882812 26.75 C 15.078125 26.105469 15.171875 25.445312 15.171875 24.769531 C 15.179688 24.445312 15.296875 24.171875 15.53125 23.949219 C 15.75 23.722656 16.015625 23.609375 16.332031 23.617188 L 20.972656 23.617188 C 21.296875 23.621094 21.570312 23.738281 21.792969 23.972656 C 22.023438 24.191406 22.136719 24.453125 22.132812 24.769531 C 22.132812 25.222656 22.175781 25.675781 22.265625 26.121094 C 22.355469 26.566406 22.484375 27 22.660156 27.417969 C 22.835938 27.839844 23.050781 28.238281 23.304688 28.617188 C 23.558594 28.996094 23.84375 29.34375 24.167969 29.667969 C 24.492188 29.988281 24.84375 30.273438 25.222656 30.527344 C 25.601562 30.78125 26.003906 30.992188 26.425781 31.167969 C 26.847656 31.339844 27.28125 31.472656 27.730469 31.5625 C 28.179688 31.648438 28.632812 31.695312 29.089844 31.695312 C 29.542969 31.695312 29.996094 31.648438 30.445312 31.5625 C 30.894531 31.472656 31.328125 31.339844 31.75 31.167969 C 32.171875 30.992188 32.574219 30.78125 32.953125 30.527344 C 33.332031 30.273438 33.683594 29.988281 34.007812 29.667969 C 34.332031 29.34375 34.617188 28.996094 34.871094 28.617188 C 35.125 28.238281 35.339844 27.839844 35.515625 27.417969 C 35.691406 27 35.824219 26.566406 35.910156 26.121094 C 36 25.675781 36.046875 25.222656 36.046875 24.769531 L 36.046875 12.074219 C 36.046875 11.542969 35.992188 11.019531 35.890625 10.496094 C 35.785156 9.976562 35.632812 9.472656 35.425781 8.980469 C 35.222656 8.492188 34.972656 8.027344 34.675781 7.585938 C 34.382812 7.144531 34.042969 6.738281 33.667969 6.359375 C 33.292969 5.984375 32.882812 5.652344 32.4375 5.355469 C 31.996094 5.0625 31.527344 4.8125 31.035156 4.609375 C 30.542969 4.40625 30.035156 4.253906 29.511719 4.148438 C 28.988281 4.046875 28.460938 3.996094 27.929688 3.996094 Z M 33.726562 24.769531 C 33.726562 25.226562 33.664062 25.675781 33.53125 26.113281 C 33.398438 26.550781 33.203125 26.960938 32.949219 27.339844 C 32.695312 27.722656 32.390625 28.058594 32.039062 28.347656 C 31.683594 28.640625 31.292969 28.871094 30.867188 29.046875 C 30.445312 29.222656 30.003906 29.332031 29.546875 29.378906 C 29.089844 29.425781 28.636719 29.402344 28.183594 29.3125 C 27.734375 29.222656 27.304688 29.070312 26.902344 28.855469 C 26.496094 28.640625 26.132812 28.371094 25.804688 28.046875 C 24.898438 27.140625 24.445312 26.050781 24.449219 24.769531 C 24.445312 24.375 24.375 23.988281 24.242188 23.617188 L 27.929688 23.617188 C 29.019531 23.613281 30.070312 23.402344 31.074219 22.980469 C 32.078125 22.558594 32.964844 21.957031 33.726562 21.179688 Z M 33.726562 24.769531 " fill-opacity="1" fill-rule="nonzero"/></g></svg>